IKResults
version=1
nRows=24
nColumns=24
inDegrees=yes

Units are S.I. units (second, meters, Newtons, ...)
If the header above contains a line with 'inDegrees', this indicates whether rotational values are in degrees (yes) or radians (no).

endheader
time	pelvis_tilt	pelvis_list	pelvis_rotation	pelvis_tx	pelvis_ty	pelvis_tz	hip_flexion_r	hip_adduction_r	hip_rotation_r	knee_angle_r	ankle_angle_r	subtalar_angle_r	mtp_angle_r	hip_flexion_l	hip_adduction_l	hip_rotation_l	knee_angle_l	ankle_angle_l	subtalar_angle_l	mtp_angle_l	lumbar_extension	lumbar_bending	lumbar_rotation
      1.67000000	     10.52468143	      1.96806173	   -180.17875729	      0.28010872	      0.72233552	     -1.20238062	     48.16036746	    -25.10044850	    -24.01626611	    -67.88903005	     21.83940054	      5.97180599	      0.00000000	     50.18014026	    -28.40467330	    -18.71784324	    -68.67477227	     23.57058093	     13.77660878	      0.00000000	     -9.90184091	      2.00893263	      3.24433540
      1.67500000	     10.45197436	      1.92094938	   -180.18818169	      0.27915078	      0.72738329	     -1.20240873	     47.31010866	    -24.84641099	    -24.33959914	    -66.60828644	     21.31936588	      5.97859032	      0.00000000	     49.25804212	    -28.12540244	    -19.12298890	    -67.40772020	     23.00270242	     13.68385910	      0.00000000	     -9.75768339	      1.97288905	      3.22692372
      1.68000000	     10.44085923	      1.93562995	   -180.22272031	      0.27821403	      0.73226753	     -1.20247463	     46.55699961	    -24.54479099	    -24.71210864	    -65.40538208	     20.62914981	      5.85433949	      0.00000000	     48.39581472	    -27.88552670	    -19.61545147	    -66.12836882	     22.48671784	     13.34312394	      0.00000000	     -9.55074049	      1.98400262	      3.24989937
      1.68500000	     10.36946658	      1.89675704	   -180.20791584	      0.27726396	      0.73720304	     -1.20254700	     45.71436974	    -24.29356120	    -25.02200016	    -64.12306860	     20.06011586	      5.84173758	      0.00000000	     47.49415531	    -27.59060703	    -19.98421709	    -64.84246000	     21.86477070	     13.20838008	      0.00000000	     -9.41497529	      1.94217681	      3.18186665
      1.69000000	     10.38823079	      1.88630514	   -180.20649183	      0.27644252	      0.74193658	     -1.20269000	     44.98005268	    -23.98904501	    -25.32122894	    -62.82884144	     19.44899820	      5.83107141	      0.00000000	     46.72483493	    -27.31578894	    -20.29946317	    -63.56566733	     21.24045903	     13.09705037	      0.00000000	     -9.19357020	      1.92884363	      3.15543431
      1.69500000	     10.31628757	      1.85117011	   -180.15139907	      0.27546401	      0.74665840	     -1.20274309	     44.09554810	    -23.72950342	    -25.60378667	    -61.45246414	     19.02550574	      5.97754654	      0.00000000	     45.85905279	    -26.99122383	    -20.61517733	    -62.28777377	     20.62233141	     12.96207090	      0.00000000	     -9.06392265	      1.90050978	      3.02843149
      1.70000000	     10.31154874	      1.85895111	   -180.16498471	      0.27452191	      0.75127204	     -1.20273776	     43.33221475	    -23.41326107	    -25.90638000	    -60.15049034	     18.46423815	      6.03334002	      0.00000000	     45.07026506	    -26.74810318	    -20.95987707	    -61.02532890	     19.97463474	     13.02495926	      0.00000000	     -8.87096614	      1.92158163	      2.98019173
      1.70500000	     10.25302602	      1.84338363	   -180.17071097	      0.27361427	      0.75581880	     -1.20275442	     42.54103014	    -23.13075448	    -26.21047151	    -58.88599215	     17.90601803	      6.01622691	      0.00000000	     44.22428521	    -26.46625307	    -21.28611108	    -59.75564974	     19.37273105	     12.92430344	      0.00000000	     -8.74564231	      1.91565755	      2.90142403
      1.71000000	     10.19548316	      1.84413692	   -180.17243137	      0.27267303	      0.76027764	     -1.20279044	     41.73612620	    -22.82862232	    -26.51248653	    -57.60259118	     17.32271773	      6.06418186	      0.00000000	     43.38657112	    -26.20033120	    -21.58095851	    -58.50374695	     18.73790700	     12.65235974	      0.00000000	     -8.60706638	      1.92594920	      2.85428359
      1.71500000	     10.15212923	      1.80117432	   -180.15709392	      0.27175973	      0.76462288	     -1.20277586	     40.96259579	    -22.57626535	    -26.79447717	    -56.31941367	     16.71877399	      6.08466383	      0.00000000	     42.56481104	    -25.88424845	    -21.92698918	    -57.22281254	     18.22026149	     12.82782337	      0.00000000	     -8.47413598	      1.88938324	      2.76176810
      1.72000000	     10.12901955	      1.84039771	   -180.14868868	      0.27079490	      0.76891115	     -1.20285103	     40.15436416	    -22.22220160	    -27.13972677	    -54.97409908	     16.13438651	      6.11822935	      0.00000000	     41.79894250	    -25.64748479	    -22.19005362	    -55.97037180	     17.65709378	     12.84043992	      0.00000000	     -8.30525685	      1.93984376	      2.67071363
      1.72500000	     10.06558105	      1.83496454	   -180.12057761	      0.26982815	      0.77313108	     -1.20292263	     39.35802154	    -21.92310377	    -27.41117452	    -53.69660043	     15.56262851	      6.13063199	      0.00000000	     40.99007592	    -25.36149591	    -22.48253902	    -54.70628166	     17.05619635	     12.78281132	      0.00000000	     -8.19515663	      1.94035708	      2.54055511
      1.73000000	     10.00745843	      1.82642595	   -180.10459228	      0.26891880	      0.77720528	     -1.20298549	     38.58359783	    -21.63951454	    -27.71097484	    -52.44080974	     15.02442166	      6.18268053	      0.00000000	     40.20030538	    -25.08871842	    -22.78196460	    -53.47626266	     16.46775222	     12.75033188	      0.00000000	     -8.07514966	      1.91463206	      2.48219291
      1.73500000	      9.94191454	      1.82235725	   -180.09808376	      0.26792624	      0.78124572	     -1.20301578	     37.80473829	    -21.33377755	    -27.98172322	    -51.18367408	     14.47635251	      6.16539994	      0.00000000	     39.38851351	    -24.79768045	    -23.04733977	    -52.21457367	     15.89305442	     12.67101765	      0.00000000	     -7.95827932	      1.90395204	      2.42207890
      1.74000000	      9.92213716	      1.80000716	   -180.06994212	      0.26699043	      0.78508563	     -1.20305068	     37.08109293	    -21.07070698	    -28.26134402	    -49.93171720	     13.89772737	      6.21850944	      0.00000000	     38.65178477	    -24.48497391	    -23.30704333	    -50.98663071	     15.29490260	     12.59036333	      0.00000000	     -7.80266096	      1.90898586	      2.28611986
      1.74500000	      9.89452319	      1.79760725	   -180.07332564	      0.26599682	      0.78884519	     -1.20300740	     36.33985907	    -20.75723172	    -28.50705816	    -48.65180051	     13.31455701	      6.25091986	      0.00000000	     37.90060187	    -24.20709639	    -23.58393606	    -49.77012953	     14.72945251	     12.51715121	      0.00000000	     -7.64603515	      1.92696960	      2.19478087
      1.75000000	      9.84776786	      1.76313130	   -180.03467812	      0.26512224	      0.79244803	     -1.20302615	     35.60803438	    -20.51264596	    -28.79267666	    -47.43512131	     12.74570213	      6.30872984	      0.00000000	     37.16004365	    -23.87890602	    -23.82195338	    -48.55882153	     14.15926414	     12.44457353	      0.00000000	     -7.52610842	      1.89240068	      2.07922587
      1.75500000	      9.84093934	      1.78198046	   -180.04855076	      0.26421868	      0.79592930	     -1.20297385	     34.92343045	    -20.17530895	    -29.04416827	    -46.20027010	     12.18209777	      6.32578446	      0.00000000	     36.46394804	    -23.61290143	    -24.03169227	    -47.35423456	     13.58029917	     12.31888382	      0.00000000	     -7.34154978	      1.90731022	      2.11121587
      1.76000000	      9.83875982	      1.76880562	   -180.04898317	      0.26327955	      0.79932448	     -1.20291953	     34.25936229	    -19.88181276	    -29.27722131	    -44.99049061	     11.63169257	      6.33291907	      0.00000000	     35.77488245	    -23.31608992	    -24.26148142	    -46.15841124	     12.98850500	     12.20065493	      0.00000000	     -7.16735807	      1.91644451	      2.00833094
      1.76500000	      9.78008840	      1.73587835	   -180.01621194	      0.26233709	      0.80267032	     -1.20288837	     33.53546944	    -19.62378986	    -29.51743294	    -43.80000182	     11.08594276	      6.37651820	      0.00000000	     35.04277861	    -22.97785242	    -24.44038412	    -44.96854280	     12.40582342	     12.07225179	      0.00000000	     -7.04983405	      1.88983034	      1.88395059
      1.77000000	      9.74496801	      1.71661725	   -179.97213832	      0.26146696	      0.80577134	     -1.20293165	     32.84424564	    -19.34506722	    -29.72921185	    -42.60939269	     10.59497850	      6.41292493	      0.00000000	     34.37926421	    -22.66213847	    -24.59114177	    -43.83244746	     11.87007044	     11.94726148	      0.00000000	     -6.89748618	      1.83633663	      1.85314931
      1.77500000	      9.77868460	      1.72284704	   -179.99419013	      0.26050020	      0.80881978	     -1.20294590	     32.24358272	    -19.01715448	    -29.90087406	    -41.41202175	     10.02587651	      6.47112574	      0.00000000	     33.75033722	    -22.40220397	    -24.81553571	    -42.68354337	     11.34178025	     11.85366455	      0.00000000	     -6.67638653	      1.86722839	      1.77024577
      1.78000000	      9.74432795	      1.67838196	   -179.94075749	      0.25968460	      0.81166194	     -1.20299140	     31.59970097	    -18.77846647	    -30.09406864	    -40.29247794	      9.53296035	      6.48988730	      0.00000000	     33.11323971	    -22.05534538	    -24.93892495	    -41.57116260	     10.81769909	     11.72221866	      0.00000000	     -6.53726782	      1.79666796	      1.70565264
      1.78500000	      9.76482761	      1.68654929	   -179.96905292	      0.25871910	      0.81442498	     -1.20288614	     31.01661942	    -18.46216511	    -30.25735684	    -39.15075637	      9.01113072	      6.51910877	      0.00000000	     32.50287723	    -21.78238024	    -25.09435531	    -40.46217087	     10.28605283	     11.52830421	      0.00000000	     -6.32044329	      1.83460772	      1.67463165
